PathFileType	4	(X/Y/Z)	/Users/itak/Documents/Research/Walk-IL/dataset/trc/00229_00009.trc
DataRate	CameraRate	NumFrames	NumMarkers	Units	OrigDataRate	OrigDataStartFrame	OrigNumFrames
100.000000	100.000000	4	53	mm	100.000000	401	802
Frame#	Time	RPSI			LPSI			L3			STRN			T10			C7			CLAV			RBAK			LBAK			LSHO			LUPA			LAEL			LAOL			LWTS			LWPS			LFRA			LIFD			LHPS			LHTS			RSHO			RUPA			RAEL			RAOL			RWTS			RWPS			RFRA			RIFD			RHTS			RHPS			RBHD			LFHD			RFHD			LBHD			LHIP			RHIP			RASI			LASI			LKNE			LTHI			LANK			LTIP			LTOE			LMT5			LHEE			RKNE			RTHI			RTIP			RTOE			RMT1			RMT5			RHEE			LMT1			RANK			
		X1	Y1	Z1	X2	Y2	Z2	X3	Y3	Z3	X4	Y4	Z4	X5	Y5	Z5	X6	Y6	Z6	X7	Y7	Z7	X8	Y8	Z8	X9	Y9	Z9	X10	Y10	Z10	X11	Y11	Z11	X12	Y12	Z12	X13	Y13	Z13	X14	Y14	Z14	X15	Y15	Z15	X16	Y16	Z16	X17	Y17	Z17	X18	Y18	Z18	X19	Y19	Z19	X20	Y20	Z20	X21	Y21	Z21	X22	Y22	Z22	X23	Y23	Z23	X24	Y24	Z24	X25	Y25	Z25	X26	Y26	Z26	X27	Y27	Z27	X28	Y28	Z28	X29	Y29	Z29	X30	Y30	Z30	X31	Y31	Z31	X32	Y32	Z32	X33	Y33	Z33	X34	Y34	Z34	X35	Y35	Z35	X36	Y36	Z36	X37	Y37	Z37	X38	Y38	Z38	X39	Y39	Z39	X40	Y40	Z40	X41	Y41	Z41	X42	Y42	Z42	X43	Y43	Z43	X44	Y44	Z44	X45	Y45	Z45	X46	Y46	Z46	X47	Y47	Z47	X48	Y48	Z48	X49	Y49	Z49	X50	Y50	Z50	X51	Y51	Z51	X52	Y52	Z52	X53	Y53	Z53	

402	4.01	436.9378662109375	1024.466918945312	-296.0547180175781	402.4549865722656	1026.580078125	-180.5401458740234	421.6696472167969	1112.669677734375	-215.4360046386719	180.5281219482422	1298.7138671875	-279.28857421875	425.5066528320312	1239.938110351562	-214.9894714355469	361.7156677246094	1500.786865234375	-220.9089508056641	204.7806396484375	1416.305786132812	-270.2862243652344	457.8794250488281	1364.351440429688	-272.0947875976562	351.4532470703125	1460.184448242188	-109.3343887329102	249.5847015380859	1461.752075195312	-81.29792785644531	251.2390289306641	1340.620727539062	-2.899688720703125	213.4216461181641	1131.568237304688	6.467650413513184	294.0284729003906	1105.98828125	-15.42355728149414	93.28485107421875	951.6754150390625	-125.6509399414062	82.53214263916016	916.411376953125	-49.95878982543945	164.0229644775391	1035.35302734375	-9.83701229095459	26.2321605682373	773.1318969726562	-168.9430847167969	42.61078262329102	841.9656372070312	-80.24340057373047	29.14442253112793	868.0582885742188	-140.6181488037109	355.3120727539062	1464.322143554688	-400.0288391113281	394.8241882324219	1401.599975585938	-459.0053100585938	439.6119689941406	1127.660278320312	-508.5626525878906	441.7463684082031	1113.45263671875	-413.4693603515625	299.4466552734375	912.69970703125	-531.5503540039062	372.0741882324219	902.6644287109375	-574.9974975585938	420.7889709472656	1060.819580078125	-534.7139892578125	279.9802856445312	721.9752807617188	-549.2936401367188	267.5878601074219	795.5103759765625	-570.8469848632812	334.9874267578125	797.6212158203125	-599.3905029296875	293.8525085449219	1674.588989257812	-296.5939025878906	79.68989562988281	1659.984375	-223.1631317138672	89.72530364990234	1661.922241210938	-322.9376831054688	235.3102264404297	1665.896118164062	-169.3991546630859	264.7256469726562	962.3692626953125	-76.52774810791016	371.5350646972656	996.0936279296875	-426.2330017089844	269.3004455566406	1042.2099609375	-414.8274841308594	183.8162994384766	1011.892578125	-148.8063354492188	222.1938323974609	488.1051635742188	-206.7243194580078	223.9368896484375	626.693359375	-155.3074493408203	366.7093200683594	32.88236999511719	-252.5494689941406	293.3626098632812	264.0551147460938	-220.2206420898438	169.6762084960938	39.59562301635742	-359.2785949707031	238.0280456542969	35.75670623779297	-267.39599609375	437.3726501464844	41.3741569519043	-290.1773681640625	214.8136749267578	523.8884887695312	-475.6604614257812	273.2862548828125	787.659912109375	-475.3909301757812	232.6378326416016	408.1094970703125	-475.899658203125	236.4987182617188	57.0668830871582	-509.0875244140625	275.3234558105469	51.79371643066406	-451.7550964355469	349.5563659667969	64.35543060302734	-544.4034423828125	483.8570251464844	90.35019683837891	-413.6160278320312	246.7253723144531	33.62153244018555	-383.1164855957031	442.5890502929688	85.27548980712891	-487.0145263671875	
403	4.02	432.5301513671875	1024.939086914062	-299.320556640625	399.7903137207031	1026.988891601562	-183.2410125732422	418.3238220214844	1113.130859375	-218.2462158203125	176.1828765869141	1298.670776367188	-278.8167724609375	421.5853271484375	1240.272827148438	-217.6918640136719	357.4548950195312	1501.02734375	-222.7036895751953	200.03466796875	1416.31884765625	-270.2750549316406	453.2107849121094	1364.705078125	-274.9328002929688	348.5282287597656	1460.500732421875	-110.970100402832	246.9458160400391	1461.919677734375	-81.81849670410156	249.59033203125	1340.907592773438	-3.292518854141235	211.4966735839844	1131.94873046875	6.492756843566895	291.9201049804688	1106.092041015625	-15.7483959197998	89.554443359375	954.09521484375	-126.3825378417969	78.69491577148438	918.3078002929688	-50.95022583007812	161.3164367675781	1036.236938476562	-10.19466304779053	20.90549468994141	776.4548950195312	-171.1072540283203	37.92626571655273	844.54296875	-81.78328704833984	24.22550010681152	871.3273315429688	-141.8707885742188	349.0822448730469	1464.493530273438	-401.7474975585938	388.0232543945312	1401.839721679688	-461.1102294921875	432.9970397949219	1128	-510.9764709472656	436.0273132324219	1113.839477539062	-415.9440307617188	293.1422729492188	912.6262817382812	-532.437255859375	365.4241943359375	902.7722778320312	-576.618408203125	414.0970458984375	1061.097045898438	-536.91796875	273.1054382324219	722.017822265625	-550.1529541015625	261.2486267089844	795.335205078125	-571.3853149414062	328.3691101074219	797.618408203125	-600.6046142578125	288.8829345703125	1674.629760742188	-297.5241088867188	75.32420349121094	1660.141723632812	-222.1459350585938	84.48954772949219	1662.03857421875	-322.0432739257812	231.4596099853516	1666.021728515625	-169.81005859375	263.8342590332031	962.38720703125	-77.08450317382812	365.2932739257812	996.57177734375	-428.4222412109375	263.0302734375	1042.401611328125	-415.3699035644531	181.6691741943359	1011.754699707031	-148.0852813720703	221.5172424316406	487.8725891113281	-206.38037109375	223.3235626220703	626.56494140625	-155.0659484863281	366.71337890625	32.89765167236328	-252.5611114501953	293.0120239257812	263.9774780273438	-220.0888061523438	169.6974487304688	39.60110855102539	-359.2615356445312	238.0755462646484	35.71041107177734	-267.3507385253906	437.4117126464844	41.37007904052734	-290.2903137207031	204.5735626220703	524.8937377929688	-474.1705627441406	265.13330078125	788.1937255859375	-475.827880859375	219.4572906494141	408.7088317871094	-476.0625610351562	210.7315521240234	58.22805786132812	-512.2124633789062	251.6893615722656	51.00013732910156	-456.5625915527344	322.461669921875	62.47446823120117	-551.8626708984375	462.5693664550781	82.60905456542969	-426.1665344238281	246.6479339599609	33.67379379272461	-383.0759582519531	418.2351684570312	79.5711669921875	-497.8457336425781	
404	4.03	428.1124572753906	1025.386596679688	-302.5535583496094	397.1316223144531	1027.378173828125	-185.9331970214844	414.955322265625	1113.576904296875	-221.0723724365234	171.7606658935547	1298.581909179688	-278.3120422363281	417.6125183105469	1240.596557617188	-220.4059753417969	353.1439819335938	1501.250122070312	-224.4936676025391	195.247802734375	1416.290893554688	-270.2149963378906	448.4836120605469	1365.064208984375	-277.8050537109375	345.5816955566406	1460.794555664062	-112.6194381713867	244.3095397949219	1462.042114257812	-82.32561492919922	248.0195159912109	1341.142944335938	-3.676391839981079	209.6870269775391	1132.273803710938	6.532149314880371	289.926025390625	1106.169677734375	-16.12111854553223	85.97936248779297	956.2781372070312	-126.8866958618164	75.11554718017578	920.0314331054688	-51.67150115966797	158.7801818847656	1037.026123046875	-10.44738960266113	15.6763219833374	779.5338134765625	-172.8110961914062	33.51866149902344	846.9019775390625	-82.94511413574219	19.32736206054688	874.33837890625	-142.8092651367188	342.7582397460938	1464.651245117188	-403.4525146484375	381.0983581542969	1402.054443359375	-463.1974182128906	426.2435302734375	1128.314086914062	-513.3419799804688	430.19775390625	1114.209350585938	-418.3879089355469	286.7619323730469	912.4903564453125	-533.2359008789062	358.6848449707031	902.8273315429688	-578.1566162109375	407.2755737304688	1061.341430664062	-539.0601196289062	266.1414184570312	721.9822998046875	-550.9547119140625	254.8646240234375	795.0872802734375	-571.8291015625	321.6756591796875	797.5635986328125	-601.72119140625	283.8476867675781	1674.634765625	-298.4063720703125	70.91154479980469	1660.247192382812	-221.0714263916016	79.19615936279297	1662.100219726562	-321.0824890136719	227.5707092285156	1666.113403320312	-170.1701812744141	263.0047302246094	962.397216796875	-77.63877105712891	359.0151672363281	997.0172729492188	-430.5592041015625	256.7304992675781	1042.556884765625	-415.8663635253906	179.5607757568359	1011.61328125	-147.3557281494141	220.8284759521484	487.6429748535156	-206.0648498535156	222.7003631591797	626.4445190429688	-154.8491516113281	366.7227172851562	32.90515518188477	-252.5676574707031	292.6438293457031	263.8973693847656	-219.9683685302734	169.7226104736328	39.61276245117188	-359.2310791015625	238.108154296875	35.66437530517578	-267.3164367675781	437.4450988769531	41.39651107788086	-290.35546875	194.4367523193359	525.93994140625	-472.6968383789062	256.9867248535156	788.7230834960938	-476.156494140625	206.2285766601562	409.3559875488281	-475.9177551269531	184.8948516845703	59.52796936035156	-513.3839721679688	227.9429779052734	50.59767913818359	-459.5513916015625	294.99072265625	60.71538543701172	-557.484375	440.6915588378906	75.56333160400391	-437.4990539550781	246.6046295166016	33.72056579589844	-383.0192260742188	393.3180236816406	74.28290557861328	-507.2428894042969	
405	4.04	423.681640625	1025.810424804688	-305.7395629882812	394.4642639160156	1027.745239257812	-188.6068572998047	411.5566711425781	1113.999755859375	-223.8991088867188	167.2572021484375	1298.449584960938	-277.7756652832031	413.6040344238281	1240.916748046875	-223.1110229492188	348.7860107421875	1501.456665039062	-226.2750244140625	190.4169006347656	1416.224731445312	-270.10693359375	443.6981201171875	1365.430053710938	-280.7100524902344	342.6143493652344	1461.068603515625	-114.2807846069336	241.6784362792969	1462.1240234375	-82.82151031494141	246.5193023681641	1341.328979492188	-4.057839870452881	207.9840240478516	1132.545288085938	6.577069759368896	288.0336608886719	1106.222534179688	-16.54662895202637	82.55884552001953	958.205322265625	-127.1750183105469	71.78050231933594	921.565185546875	-52.13077163696289	156.4039611816406	1037.717651367188	-10.60377311706543	10.55176734924316	782.3633422851562	-174.0351409912109	29.392822265625	849.01220703125	-83.72916412353516	14.52649211883545	877.0563354492188	-143.4244995117188	336.3370971679688	1464.789306640625	-405.1374206542969	374.0507202148438	1402.240478515625	-465.2632141113281	419.34326171875	1128.598266601562	-515.6694946289062	424.2678833007812	1114.5595703125	-420.8136291503906	280.3029479980469	912.291748046875	-533.9443969726562	351.8366394042969	902.829345703125	-579.6194458007812	400.3154602050781	1061.549072265625	-541.1478881835938	259.073974609375	721.8765869140625	-551.6834716796875	248.4191741943359	794.7650756835938	-572.1648559570312	314.8880615234375	797.4508056640625	-602.7388916015625	278.7382202148438	1674.609008789062	-299.2437438964844	66.45825958251953	1660.292724609375	-219.9409942626953	73.84042358398438	1662.099243164062	-320.0568237304688	223.6407012939453	1666.171875	-170.4793395996094	262.2283325195312	962.401611328125	-78.18084716796875	352.6956176757812	997.4354858398438	-432.6358032226562	250.3892211914062	1042.679809570312	-416.3161010742188	177.5071563720703	1011.46337890625	-146.6110229492188	220.1456756591797	487.4180297851562	-205.7643127441406	222.0640563964844	626.3289794921875	-154.6551055908203	366.7375793457031	32.90352630615234	-252.5653381347656	292.2725524902344	263.8173522949219	-219.8523406982422	169.7527465820312	39.62908554077148	-359.1887512207031	238.1274108886719	35.62085723876953	-267.2873229980469	437.4712219238281	41.44227981567383	-290.381103515625	184.4009399414062	527.0382690429688	-471.2621459960938	248.8627014160156	789.2635498046875	-476.3856506347656	192.9856109619141	410.0565185546875	-475.4715576171875	159.1460876464844	60.95627975463867	-512.6865844726562	204.2225341796875	50.57453155517578	-460.7682189941406	267.3298950195312	59.07425308227539	-561.25927734375	418.3391418457031	69.18210601806641	-447.4779968261719	246.6033935546875	33.75726699829102	-382.9502563476562	367.9864196777344	69.41869354248047	-515.1113891601562	
